<?xml version="1.0" standalone="no"?>
<!DOCTYPE svg PUBLIC "-//W3C//DTD SVG 20010904//EN"
 "http://www.w3.org/TR/2001/REC-SVG-20010904/DTD/svg10.dtd">
<svg version="1.0" xmlns="http://www.w3.org/2000/svg"
 width="256.000000pt" height="256.000000pt" viewBox="0 0 256.000000 256.000000"
 preserveAspectRatio="xMidYMid meet">

<g transform="translate(0.000000,256.000000) scale(0.100000,-0.100000)"
fill="#000000" stroke="none">
<path d="M1057 1544 c-4 -4 -7 -207 -7 -451 0 -474 -1 -487 -49 -513 -30 -16
-123 -12 -149 5 -12 9 -36 36 -53 61 l-31 45 -86 -47 c-48 -26 -91 -50 -96
-55 -27 -25 90 -155 170 -189 72 -31 169 -43 250 -30 135 21 220 85 266 199
22 55 23 63 23 516 l0 460 -116 3 c-63 1 -118 -1 -122 -4z"/>
<path d="M1713 1529 c-80 -25 -161 -97 -193 -171 -18 -41 -23 -71 -23 -135 0
-73 4 -91 32 -148 47 -95 124 -152 311 -230 139 -58 189 -108 176 -177 -12
-65 -69 -98 -168 -98 -79 0 -135 26 -191 90 l-42 49 -95 -55 c-52 -31 -97 -58
-98 -59 -8 -7 58 -92 97 -128 155 -140 454 -157 620 -36 143 103 162 344 40
484 -46 53 -116 96 -261 160 -152 67 -193 105 -185 168 3 25 15 50 32 66 22
22 34 26 83 26 64 -1 107 -23 132 -69 7 -14 17 -26 21 -26 11 0 179 109 179
116 0 19 -37 68 -81 108 -92 82 -248 109 -386 65z"/>
</g>
</svg>
