<?xml version="1.0" standalone="no"?>
<!DOCTYPE svg PUBLIC "-//W3C//DTD SVG 20010904//EN"
 "http://www.w3.org/TR/2001/REC-SVG-20010904/DTD/svg10.dtd">
<svg version="1.0" xmlns="http://www.w3.org/2000/svg"
 width="300.000000pt" height="189.000000pt" viewBox="0 0 300.000000 189.000000"
 preserveAspectRatio="xMidYMid meet">
<metadata>
Created by potrace 1.10, written by Peter Selinger 2001-2011
</metadata>
<g transform="translate(0.000000,189.000000) scale(0.100000,-0.100000)"
fill="#000000" stroke="none">
<path d="M5 945 c0 -522 1 -738 2 -478 2 259 2 687 0 950 -1 263 -2 51 -2
-472z"/>
<path d="M1200 1452 c0 -5 17 -14 38 -20 42 -13 149 -79 171 -106 8 -10 10
-20 5 -25 -5 -4 -32 -29 -61 -55 l-52 -48 -30 21 c-63 45 -123 64 -201 64 -93
1 -144 -14 -207 -56 -152 -105 -177 -363 -48 -506 104 -114 308 -131 449 -36
l51 34 58 -57 c31 -31 57 -61 57 -67 0 -26 -169 -124 -215 -125 -19 -1 -19 -1
-2 -11 13 -8 139 -10 400 -7 328 4 390 8 437 23 80 25 120 48 178 100 l52 47
0 204 0 204 -205 0 -205 0 0 -80 0 -79 123 -3 122 -3 3 -82 3 -82 -40 -26
c-126 -84 -318 -68 -421 34 -68 68 -93 140 -88 251 7 138 63 237 170 295 43
23 68 30 134 33 93 5 156 -11 226 -58 l43 -29 54 54 c49 48 53 55 40 71 -24
30 -113 82 -180 106 -62 22 -77 23 -461 26 -236 2 -398 0 -398 -6z"/>
</g>
</svg>
